<svg width="24" height="17" viewBox="0 0 24 17" fill="none" xmlns="http://www.w3.org/2000/svg">
<path fill-rule="evenodd" clip-rule="evenodd" d="M1.79278 0.0352481C1.6739 0.058297 1.46797 0.124059 1.33514 0.181308L1.09366 0.285401L1.55124 0.724077C6.22636 5.20557 11.5829 10.2829 11.7068 10.3502C11.9099 10.4606 12.0831 10.4606 12.2851 10.3502C12.4897 10.2383 22.8825 0.329408 22.8496 0.277536C22.836 0.25608 22.6931 0.186684 22.5321 0.123312L22.2393 0.00806742L12.1241 0.000649849C6.56072 -0.00343225 1.91161 0.0121494 1.79278 0.0352481ZM0.193147 1.29547C0.136747 1.41978 0.067678 1.64225 0.0396824 1.78985C0.00703784 1.962 -0.00624473 4.42246 0.00274657 8.64977C0.0158248 14.8091 0.0226704 15.2582 0.107321 15.5005C0.157182 15.643 0.218589 15.7721 0.243826 15.7873C0.269011 15.8025 1.83508 14.1737 3.72387 12.1678C5.6127 10.1619 7.26945 8.40822 7.40554 8.27073L7.65301 8.02072L4.02395 4.56199C2.02798 2.65969 0.372565 1.09565 0.345335 1.08639C0.318055 1.07713 0.249598 1.17122 0.193147 1.29547ZM19.9404 4.59196C17.9173 6.52175 16.256 8.1178 16.2486 8.13875C16.2411 8.15971 17.913 9.9174 19.964 12.0447L23.693 15.9126L23.7743 15.7593C23.9985 15.337 24 15.2868 24 8.49584C24 3.13296 23.9879 1.99336 23.9279 1.71737C23.8551 1.38289 23.724 1.07628 23.6556 1.08086C23.6353 1.08221 21.9634 2.66223 19.9404 4.59196ZM4.69533 12.7118C1.34495 16.2659 1.01095 16.6352 1.09391 16.6944C1.14423 16.7302 1.31318 16.8099 1.4694 16.8716L1.75344 16.9836L11.7665 16.9974C17.9875 17.006 21.9004 16.9931 22.0988 16.9633C22.2744 16.9371 22.5358 16.8635 22.6797 16.7999L22.9413 16.6842L19.2249 12.8265C17.1808 10.7048 15.4928 8.95179 15.4737 8.93108C15.4546 8.91037 14.8975 9.40679 14.2358 10.0343C12.7891 11.4062 12.7085 11.4573 11.9964 11.4573C11.2793 11.4573 11.2066 11.4106 9.70726 9.98436C9.01933 9.32998 8.44108 8.79453 8.42233 8.79453C8.40353 8.79453 6.7264 10.5573 4.69533 12.7118Z" fill="white"/>
</svg>
