<svg width="17" height="24" viewBox="0 0 17 24" fill="none" xmlns="http://www.w3.org/2000/svg">
<path fill-rule="evenodd" clip-rule="evenodd" d="M7.86154 0.0105279C5.0477 0.291351 2.80216 1.6296 1.31411 3.91251C0.194077 5.6309 -0.246141 7.87334 0.13381 9.92534C0.641758 12.6688 2.47259 16.2652 5.33497 20.1422C6.44687 21.6482 8.37828 24 8.50319 24C8.6281 24 10.5595 21.6482 11.6714 20.1422C14.1467 16.7895 15.9039 13.549 16.6095 11.036C16.8577 10.152 16.9636 9.5046 16.9941 8.68622C17.1172 5.38329 15.2924 2.36546 12.2573 0.852527C11.5822 0.516 10.5541 0.199704 9.74219 0.0786989C9.3638 0.0223367 8.17509 -0.0207583 7.86154 0.0105279ZM9.44437 5.5607C10.0564 5.76376 10.5402 6.10226 10.9112 6.58713C11.8397 7.80033 11.7283 9.4553 10.6465 10.5204C9.43348 11.7148 7.57289 11.7148 6.35989 10.5204C4.9649 9.1469 5.23905 6.89307 6.92887 5.84284C7.18933 5.68096 7.67342 5.49884 7.99567 5.44149C8.39244 5.37092 9.03058 5.42342 9.44437 5.5607Z" fill="white"/>
</svg>
