<svg width="20" height="20" viewBox="0 0 20 20" fill="none" xmlns="http://www.w3.org/2000/svg">
<path fill-rule="evenodd" clip-rule="evenodd" d="M0.0422873 4.18028C0.150962 4.51206 0.313996 4.71536 1.09788 5.4966L1.88313 6.27918L4.08454 4.07609L6.28596 1.87299L5.45761 1.05067C4.47778 0.0780336 4.35287 -0.00119764 3.80161 1.35057e-05C3.236 0.00130667 3.21493 0.0169603 1.60295 1.63388C0.50327 2.73693 0.177745 3.08775 0.108994 3.24388C-0.00293488 3.49797 -0.0348074 3.94501 0.0422873 4.18028ZM8.31745 12.7139L13.8139 18.2086L14.5023 18.4394C14.8808 18.5662 15.8529 18.8968 16.6623 19.174C18.5369 19.816 19.2594 20.0302 19.4369 19.9966C19.6672 19.9531 19.8415 19.8166 19.9341 19.6072C20.0113 19.4325 20.0154 19.3856 19.9735 19.1596C19.8958 18.7408 19.4982 17.4718 19.0704 16.2772C18.8484 15.6573 18.5624 14.8495 18.4348 14.4822L18.2028 13.8143L12.7126 8.31426L7.22248 2.81424L5.02174 5.01671L2.82103 7.21918L8.31745 12.7139Z" fill="white"/>
</svg>
