<svg width="192" height="32" viewBox="0 0 192 32" fill="none" xmlns="http://www.w3.org/2000/svg">
<g clip-path="url(#clip0_206_34)">
<path d="M79.4929 31.3224C78.9661 30.2423 77.9123 30.5123 77.1219 29.9722C72.3798 27.5421 70.2723 23.7618 70.0088 18.6314C69.7454 12.4209 69.7454 6.21047 75.8047 2.16016C76.8585 1.62012 77.9123 1.08009 78.9661 0.810061C83.4447 -0.27002 87.9233 -0.27002 92.4019 0.810061C96.8803 1.89015 99.7783 4.86037 101.096 9.45073C102.149 13.771 102.413 18.3614 100.832 22.9517C99.5148 27.542 96.3541 30.5123 91.6116 31.0523C87.9233 31.3224 83.9716 30.2423 80.2833 31.5924C79.7564 31.3224 79.4929 31.3224 79.4929 31.3224ZM85.5523 23.4918C93.7196 23.4918 94.5093 22.6817 94.5093 14.3111C94.5093 13.771 94.5093 13.231 94.5093 12.6909C94.2457 9.45073 92.6654 7.83059 89.504 7.56057C87.1329 7.56057 84.7619 7.56057 82.1274 7.56057C79.2296 7.83059 77.3854 9.45073 77.6488 12.1509C77.9123 15.9312 75.8047 20.5215 80.8102 22.9517C81.3371 23.2217 82.1274 23.2217 82.6543 23.2217C83.4447 23.4918 84.4985 23.4918 85.5523 23.4918Z" fill="#474A50"/>
<path d="M37.6094 31.3227C37.6094 22.682 37.6094 14.0414 37.6094 5.40075C37.6094 3.24059 37.8728 1.62047 39.9804 0.540382C42.088 -0.539699 43.4052 1.08042 44.9859 2.43053C49.9914 7.29088 55.2604 11.8813 59.739 15.9315C59.739 12.9614 59.739 8.10095 59.739 3.5106C59.739 1.62047 60.0025 0.810402 62.3735 0.810402C67.1156 0.810402 67.1156 0.810401 67.1156 5.67076C67.1156 12.4213 67.1156 18.9018 67.1156 25.6523C67.1156 28.3525 66.5887 30.2426 64.2177 31.5927C63.4273 31.5927 62.637 31.5927 61.5832 31.5927C56.3142 25.6523 51.0452 19.9819 45.5128 14.0414C44.7225 18.9018 44.7225 23.4921 44.7225 28.0825C44.7225 29.4325 44.7225 30.5126 43.6687 31.5927C41.8245 31.3227 39.717 31.3227 37.6094 31.3227Z" fill="#474A50"/>
<path d="M115.324 31.3222C110.055 22.1415 105.84 12.1507 101.098 2.70001C100.307 1.34991 100.835 0.809867 102.151 0.809867C107.947 0.269827 107.947 0.269826 110.582 5.67024C112.689 9.99054 114.533 14.0409 116.905 19.1712C119.013 14.5809 121.12 10.5306 122.964 6.4803C126.125 -0.000193894 126.125 -0.000193655 133.502 1.07989C131.395 5.40021 129.551 9.45049 127.706 13.5008C125.598 18.0911 123.227 22.4115 121.12 27.0018C120.329 28.892 119.276 30.2421 117.695 31.3222C117.168 31.3222 116.378 31.3222 115.324 31.3222Z" fill="#474A50"/>
<path d="M3.35932 0.540039C2.30552 0.540039 0.988281 2.97022 0.988281 3.51026C0.988281 7.83059 0.988281 12.421 0.988281 16.7412C0.988281 17.2813 0.988281 17.8213 0.988281 18.3614C0.988281 19.1714 0.988281 19.9815 0.988281 20.7916C1.77863 20.5216 2.04208 19.4415 2.30552 18.9014C4.41311 15.6611 6.25725 12.691 7.83794 9.72072C8.89173 7.56057 10.209 7.83059 12.0531 8.1006C14.1607 8.37063 14.4241 9.45069 14.4241 11.3409C14.4241 13.7711 14.951 16.2012 15.2145 19.1714C18.9028 12.691 22.0641 6.75051 25.489 0.540039C17.849 0.540039 10.7359 0.540039 3.35932 0.540039Z" fill="#F26425"/>
<path d="M25.7524 10.2607C22.591 14.851 20.2201 18.9014 17.849 22.6816C16.7952 24.3018 16.2683 25.6519 13.8972 25.1118C11.5262 24.5718 11.5262 22.9517 11.2628 21.3316C10.9993 19.4414 10.7359 17.8213 10.209 15.3911C7.57448 19.7115 5.20346 23.4917 2.83242 27.272C2.30552 28.0821 2.04208 29.1622 0.988281 29.4322C0.988281 29.9722 0.988281 30.2422 0.988281 30.7822C8.10139 30.7822 15.4779 31.0523 22.591 31.0523C24.1717 31.0523 25.489 30.2422 25.489 28.3521C25.7524 22.4116 25.7524 16.7412 25.7524 10.2607Z" fill="#F26425"/>
<path d="M80.0234 31.3221C83.7117 29.972 87.6634 31.0521 91.3517 30.7821C91.3517 31.0521 91.3517 31.3221 91.3517 31.3221C87.6634 31.3221 83.7117 31.3221 80.0234 31.3221Z" fill="#474A50"/>
<path d="M181.451 0.270578C183.822 0.270578 186.193 0.540598 188.3 0.270578C190.935 0.000557259 191.989 0.540598 191.989 3.78084C191.989 7.02109 191.198 8.37119 187.774 8.10117C183.295 7.83115 178.816 8.10117 174.601 8.10117C173.02 8.10117 171.967 8.37119 172.23 10.2614C172.494 13.7716 172.494 17.2819 172.23 21.0621C172.23 22.9523 173.02 23.2223 174.601 23.2223C179.343 23.2223 184.349 23.2223 189.091 23.2223C191.462 23.2223 191.989 24.0324 191.725 26.1926C191.725 27.0026 191.725 27.8127 191.725 28.8927C191.725 30.2428 191.462 31.0529 189.881 31.0529C184.085 31.0529 178.553 31.0529 172.757 31.0529C168.015 30.7829 164.854 27.8127 164.854 22.6822C164.59 18.0919 164.59 13.5015 164.854 9.18125C165.117 4.05087 168.278 1.08064 173.547 0.810618C176.182 0.270578 178.816 0.270578 181.451 0.270578Z" fill="#474A50"/>
<path d="M150.101 0.27002C153.262 0.27002 156.687 0.27002 159.849 0.27002C161.693 0.27002 162.483 0.54004 162.22 2.7002C162.22 3.78028 162.22 4.59034 162.22 5.67043C162.483 7.56057 161.693 8.10061 159.849 8.10061C154.843 8.10061 149.838 8.10061 145.095 8.10061C143.251 8.10061 142.461 8.64065 142.724 10.5308C142.988 13.771 142.988 17.2813 142.724 20.5216C142.724 22.6817 143.515 23.2217 145.359 23.2217C150.101 23.2217 154.843 23.2217 159.585 23.2217C161.693 23.2217 162.483 23.7618 162.22 25.922C161.956 27.0021 162.22 27.8121 162.22 28.8921C162.483 30.5123 161.693 31.0523 160.112 30.7823C154.58 30.7823 149.047 30.7823 143.251 30.7823C138.509 30.7823 135.348 27.5421 135.348 22.6817C135.348 16.7413 135.348 11.0709 135.348 5.13039C135.348 1.89014 136.665 0.810061 139.827 0.54004C143.251 0.27002 146.676 0.27002 150.101 0.27002Z" fill="#474A50"/>
<path d="M152.21 19.1719C150.893 19.1719 149.576 18.9019 148.522 19.1719C145.096 19.7119 144.57 18.3618 144.57 15.1215C144.57 12.4214 145.096 11.6113 147.995 11.6113C151.42 11.8814 154.845 11.8814 158.006 11.6113C159.85 11.6113 160.376 12.1514 160.376 14.0414C160.376 14.8515 160.376 15.6616 160.376 16.7417C160.64 18.6318 159.85 19.4419 158.006 19.1719C156.162 18.9019 154.054 19.1719 152.21 19.1719Z" fill="#474A50"/>
</g>
<defs>
<clipPath id="clip0_206_34">
<rect width="191" height="32" fill="white" transform="translate(0.988281)"/>
</clipPath>
</defs>
</svg>
