<svg width="169" height="60" viewBox="0 0 169 60" fill="none" xmlns="http://www.w3.org/2000/svg">
<g clip-path="url(#clip0_206_46)">
<path fill-rule="evenodd" clip-rule="evenodd" d="M30.4175 0L20.5738 10.0347H10.8319V19.9656L0.988281 29.9997L10.8319 40.035V49.9659H20.5738L30.4175 60L40.2611 49.9659H50.003V40.035L59.8466 29.9997L50.003 19.9656V10.0347H40.2611L30.4175 0ZM13.2807 40.7653L2.7193 29.9997L13.2807 19.2347V12.5303H19.8567L30.4175 1.76462L40.9782 12.5303H47.5549V19.2347L58.1156 29.9997L47.5549 40.7653V47.4703H40.9782L30.4175 58.236L19.8567 47.4703H13.2807V40.7653ZM6.18134 29.9997L30.4175 54.7068L54.6536 29.9997L30.4175 5.29385L6.18134 29.9997Z" fill="#00805F"/>
<path fill-rule="evenodd" clip-rule="evenodd" d="M47.5537 22.7639C43.4643 27.7895 37.297 30.9984 30.4163 30.9984C25.1052 30.9989 20.7744 35.4139 20.7744 40.8281C20.7744 43.385 21.7401 45.7186 23.3188 47.4704H23.3176L30.4163 54.7062L54.6525 30.0003L47.5537 22.7639ZM13.2789 37.2356C17.3684 32.21 23.5356 29.0024 30.4163 29.0017C35.7274 29.0017 40.0589 24.5868 40.0589 19.1721C40.0589 16.6157 39.0931 14.2815 37.5144 12.5303L30.4163 5.29388L6.1808 30.0003L13.2789 37.2368V37.2356ZM2.71875 30.0003L13.2788 19.2347V12.5303H19.8556L30.4163 1.76465L40.977 12.5303H47.5538V19.2347L58.1145 30.0003L47.5538 40.766V47.4704H40.977L30.4163 58.236L19.8556 47.4704H13.2788V40.766L2.71875 30.0003Z" fill="#FAAE17"/>
<path fill-rule="evenodd" clip-rule="evenodd" d="M101.907 43.9761L97.9899 35.9896L94.0732 43.9761H101.907ZM65.6742 41.9794V46.9707H76.9358C78.282 46.9707 79.3839 45.8481 79.3839 44.475C79.3839 43.1027 78.282 41.9794 76.9358 41.9794H65.6742ZM65.6742 33.9935V38.9848H76.9358C78.282 38.9848 79.3839 37.8616 79.3839 36.4892C79.3839 35.1161 78.282 33.9935 76.9358 33.9935H65.6742ZM111.7 30.9983H116.596L130.306 44.974V30.9983H135.202V49.9659H130.306L116.596 35.9896V49.9659H111.7V30.9983ZM145.583 40.4818L158.215 30.9983H152.83L142.058 38.9848V30.9983H137.16V49.9659H142.058V41.9794L152.83 49.9659H158.215L145.583 40.4818ZM147.933 10.0347H152.83V18.0206L163.602 10.0347H168.988L156.355 19.5182L168.988 29.0016H163.602L152.83 21.0158V29.0016H147.933V10.0347ZM137.16 21.0158L146.464 10.0347H141.568L134.713 18.0206L127.858 10.0347H122.962L132.265 21.0158V29.0016H137.16V21.0158ZM111.7 10.0347H116.596V26.007H130.306V29.0016H111.7V10.0347ZM97.9899 15.026L101.907 23.0124H94.0732L97.9899 15.026ZM104.844 29.0016H109.742L100.438 10.0347H95.5417L86.2387 29.0016H91.1349L92.6041 26.007H103.376L104.844 29.0016ZM60.7773 10.0347H65.6742V18.0206H79.3839V10.0347H84.2801V29.0016H79.3839V21.0158H65.6742V29.0016H60.7773V10.0347ZM60.7773 30.9983H79.6284C82.1873 30.9983 84.2801 33.1324 84.2801 35.7404C84.2801 38.3483 82.1873 40.4818 79.6284 40.4818C82.1873 40.4818 84.2801 42.6159 84.2801 45.2239C84.2801 47.8318 82.1873 49.9659 79.6284 49.9659H60.7773V30.9983ZM91.1349 49.9659H86.2387L95.5417 30.9983H100.438L109.742 49.9659H104.844L103.376 46.9707H92.6041L91.1349 49.9659Z" fill="#00805F"/>
</g>
<defs>
<clipPath id="clip0_206_46">
<rect width="168" height="60" fill="white" transform="translate(0.988281)"/>
</clipPath>
</defs>
</svg>
