<svg width="24" height="24" viewBox="0 0 24 24" fill="none" xmlns="http://www.w3.org/2000/svg">
<path fill-rule="evenodd" clip-rule="evenodd" d="M13.0225 23.9787C15.967 23.6709 18.4823 22.4971 20.5013 20.4889C22.2962 18.7035 23.4418 16.4585 23.8894 13.8494C24.0493 12.9179 24.0334 10.9953 23.8577 10.0036C23.3506 7.14177 21.9233 4.65122 19.7395 2.81755C15.4158 -0.812848 9.16456 -0.948703 4.65695 2.48988C4.17056 2.86088 3.14445 3.86014 2.7254 4.37085C1.26273 6.15336 0.321691 8.37089 0.0614693 10.6485C0.0279476 10.9419 0.000298634 11.5607 2.95436e-06 12.0236C-0.00337929 17.863 4.1953 22.8387 9.967 23.835C10.6851 23.959 12.4273 24.0409 13.0225 23.9787ZM11.1833 22.71C7.83105 22.4357 4.90441 20.72 3.05509 17.9449C1.22701 15.2019 0.761268 11.7788 1.78816 8.63318C2.03331 7.88217 2.77298 6.42448 3.24697 5.75835C3.76148 5.03514 5.03132 3.76666 5.75456 3.25334C6.86207 2.4673 8.42465 1.7806 9.75934 1.49336C14.5624 0.459842 19.5639 2.90576 21.6826 7.32445C24.0029 12.1635 22.4403 17.9338 18.0062 20.9006C16.2492 22.0763 14.2994 22.6938 12.1325 22.761C12.002 22.765 11.5748 22.7421 11.1833 22.71ZM16.21 15.0209C17.9811 13.2531 18.8869 12.3076 18.9276 12.1843C18.9702 12.0555 18.9693 11.9471 18.9249 11.8277C18.8313 11.5762 13.6652 6.42608 13.4281 6.3479C12.9473 6.18934 12.4729 6.74629 12.7024 7.19968C12.7385 7.27087 13.6795 8.24273 14.7935 9.35929L16.819 11.3895L11.1709 11.3895C7.13558 11.3895 5.48128 11.4084 5.37727 11.4557C5.01809 11.6192 4.95099 12.1755 5.25595 12.4617L5.40813 12.6046L11.0994 12.6342L16.7906 12.6639L14.7434 14.7085C12.5171 16.932 12.506 16.9465 12.7231 17.3491C12.8437 17.5729 13.0322 17.6726 13.3352 17.6726C13.5437 17.6726 13.6712 17.555 16.21 15.0209Z" fill="#FBC63E"/>
</svg>
