<svg width="20" height="20" viewBox="0 0 20 20" fill="none" xmlns="http://www.w3.org/2000/svg">
<path fill-rule="evenodd" clip-rule="evenodd" d="M9.14791 0.0177461C6.69417 0.274258 4.59808 1.25239 2.91562 2.92591C1.41986 4.41371 0.465188 6.28457 0.0921497 8.45887C-0.0410465 9.23512 -0.0277959 10.8373 0.118601 11.6637C0.541131 14.0485 1.73055 16.124 3.55041 17.652C7.15353 20.6774 12.3629 20.7906 16.1192 17.9251C16.5245 17.6159 17.3796 16.7832 17.7288 16.3576C18.9477 14.8722 19.7319 13.0243 19.9488 11.1262C19.9767 10.8817 19.9998 10.3661 20 9.9803C20.0028 5.11414 16.5039 0.967723 11.6942 0.137481C11.0957 0.0341456 9.64391 -0.0340699 9.14791 0.0177461ZM10.6806 1.07496C13.4741 1.30361 15.913 2.73337 17.4541 5.04588C18.9775 7.33171 19.3656 10.1843 18.5099 12.8057C18.3056 13.4315 17.6892 14.6463 17.2942 15.2014C16.8654 15.804 15.8072 16.8611 15.2045 17.2889C14.2816 17.9439 12.9795 18.5162 11.8672 18.7555C7.86465 19.6168 3.69676 17.5785 1.93114 13.8963C-0.00243223 9.86373 1.29972 5.05516 4.9948 2.58281C6.45897 1.6031 8.08383 1.0885 9.88954 1.03253C9.99831 1.02917 10.3543 1.04824 10.6806 1.07496ZM6.4917 7.48256C5.01576 8.95579 4.26094 9.74365 4.22697 9.84644C4.19152 9.95373 4.19221 10.0441 4.22924 10.1436C4.30726 10.3531 8.61236 14.6449 8.80993 14.7101C9.21056 14.8422 9.60594 14.3781 9.41465 14.0003C9.38459 13.9409 8.60044 13.1311 7.67212 12.2006L5.98418 10.5088L10.6909 10.5088C14.0537 10.5088 15.4323 10.493 15.5189 10.4536C15.8183 10.3173 15.8742 9.85375 15.62 9.61522L15.4932 9.49618L10.7505 9.47148L6.00781 9.44678L7.71385 7.74288C9.56906 5.89 9.57831 5.87795 9.39745 5.54245C9.29688 5.35588 9.13981 5.27285 8.88731 5.27285C8.71357 5.27285 8.60732 5.37085 6.4917 7.48256Z" fill="#FBC63E"/>
</svg>
