<svg width="24" height="25" viewBox="0 0 24 25" fill="none" xmlns="http://www.w3.org/2000/svg">
<path fill-rule="evenodd" clip-rule="evenodd" d="M3.36637 0.390077C3.21562 0.460489 2.92914 0.679079 2.70588 0.893914L2.31159 1.27339L5.04335 4.06368L7.77511 6.85391L8.22884 6.40094C8.47843 6.1518 8.73237 5.8449 8.79324 5.71894C8.94548 5.40386 8.94251 4.94848 8.78617 4.63643C8.7067 4.47776 8.06348 3.79705 6.74067 2.47167C4.5972 0.324038 4.52137 0.264221 3.94282 0.265147C3.72305 0.265507 3.55498 0.301921 3.36637 0.390077ZM1.12062 2.38864C0.278438 3.26146 0.000358978 3.98065 2.98031e-07 5.28638C-0.000665822 7.87675 1.11529 10.7051 3.30939 13.6738C4.30821 15.0253 5.30933 16.1769 6.68282 17.5545C11.1402 22.0253 15.2281 24.2651 18.93 24.2651C19.513 24.2651 20.1935 24.1507 20.6025 23.9839C20.9871 23.827 21.4575 23.4896 21.8353 23.0995L22.1261 22.7993L19.4017 20.0123L16.6772 17.2252L16.2623 17.6317C15.8203 18.0647 15.682 18.1446 15.3744 18.1446C15.0441 18.1446 14.8627 18.0447 13.9882 17.3808C12.0781 15.9309 11.375 15.327 10.0912 14.0344C9.0063 12.9418 8.22279 12.0276 7.06815 10.5069C6.22955 9.4024 6.09566 9.17394 6.09566 8.84718C6.09566 8.52676 6.19891 8.34273 6.60632 7.93692L6.96167 7.58296L5.73432 6.31895C5.05928 5.62373 3.8326 4.36429 3.00835 3.52017L1.50968 1.98546L1.12062 2.38864ZM18.7032 15.4677C18.5073 15.53 18.3463 15.6515 17.9615 16.0272L17.4701 16.5071L20.1797 19.2659C21.6701 20.7833 22.9061 22.0351 22.9265 22.0477C22.9469 22.0604 23.141 21.8842 23.358 21.6563C23.8377 21.1523 23.9993 20.8356 24 20.3979C24.0009 19.821 23.9363 19.738 21.8353 17.6162C20.5978 16.3665 19.8611 15.6609 19.7041 15.5751C19.3913 15.4043 19.0258 15.365 18.7032 15.4677Z" fill="white"/>
</svg>
