<svg width="100" height="100" viewBox="0 0 100 100" fill="none" xmlns="http://www.w3.org/2000/svg">
<path d="M30.8487 90.834C30.5154 91.0894 30.132 91.2948 29.6987 91.4502C29.2987 91.5945 28.8543 91.6667 28.3654 91.6667C27.7987 91.6667 27.2598 91.5557 26.7487 91.3336C26.2598 91.1227 25.8209 90.8229 25.432 90.4343C25.0543 90.0569 24.7543 89.6128 24.532 89.1021C24.3209 88.6136 24.2154 88.0696 24.2154 87.47C24.2154 86.8927 24.3265 86.3487 24.5487 85.838C24.7709 85.3273 25.0709 84.8832 25.4487 84.5057C25.8265 84.1283 26.2709 83.8285 26.782 83.6065C27.2931 83.3844 27.8376 83.2734 28.4154 83.2734C29.0154 83.2734 29.5598 83.3789 30.0487 83.5898C30.5598 83.8119 31.0043 84.1116 31.382 84.4891C31.7709 84.8777 32.0709 85.3162 32.282 85.8047C32.5043 86.3154 32.6154 86.8539 32.6154 87.4201V90.7674C32.6154 91.0005 32.532 91.2004 32.3654 91.3669C32.1987 91.5335 31.9987 91.6167 31.7654 91.6167C31.532 91.6167 31.332 91.5335 31.1654 91.3669C30.9987 91.2004 30.9154 91.0005 30.9154 90.7674V90.7508L30.8487 90.834ZM28.3154 90.0347C28.6709 90.0347 28.9987 89.968 29.2987 89.8348C29.5987 89.7016 29.8598 89.5239 30.082 89.3019C30.3043 89.0799 30.482 88.819 30.6154 88.5192C30.7487 88.2194 30.8154 87.8919 30.8154 87.5367C30.8154 87.1814 30.7487 86.8539 30.6154 86.5541C30.482 86.2543 30.3043 85.9934 30.082 85.7714C29.8598 85.5494 29.5987 85.3717 29.2987 85.2385C28.9987 85.1053 28.6765 85.0387 28.332 85.0387C27.9876 85.0387 27.6654 85.1053 27.3654 85.2385C27.0654 85.3717 26.8043 85.5494 26.582 85.7714C26.3598 85.9934 26.182 86.2543 26.0487 86.5541C25.9154 86.8539 25.8487 87.1758 25.8487 87.52C25.8487 87.8642 25.9154 88.1861 26.0487 88.4859C26.182 88.7857 26.3598 89.0466 26.582 89.2686C26.8043 89.4906 27.0654 89.6683 27.3654 89.8015C27.5209 89.8681 27.6709 89.9236 27.8154 89.968C27.9709 90.0125 28.1376 90.0347 28.3154 90.0347Z" fill="white"/>
<path d="M33.8372 84.4391C33.7372 84.2504 33.7206 84.0561 33.7872 83.8563C33.8539 83.6453 33.9984 83.4788 34.2206 83.3567C34.4206 83.2567 34.6317 83.2401 34.8539 83.3067C35.0761 83.3733 35.2428 83.5121 35.3539 83.723L37.9372 88.8856L40.5206 83.7064C40.6317 83.5065 40.7984 83.3733 41.0206 83.3067C41.2317 83.2401 41.4484 83.2567 41.6706 83.3567C41.8706 83.4788 42.0039 83.6453 42.0706 83.8563C42.1372 84.0783 42.1206 84.2948 42.0206 84.5057L38.6872 91.1504C38.6317 91.2392 38.5706 91.317 38.5039 91.3836C38.4484 91.4391 38.3761 91.489 38.2872 91.5335C38.1984 91.5779 38.0817 91.6001 37.9372 91.6001C37.815 91.6001 37.6984 91.5723 37.5872 91.5168C37.4761 91.4613 37.3984 91.4113 37.3539 91.3669C37.3206 91.3336 37.2872 91.3003 37.2539 91.267C37.2317 91.2226 37.2095 91.1782 37.1872 91.1338L33.8372 84.4391Z" fill="white"/>
<path d="M49.8917 90.834C49.5583 91.0894 49.175 91.2948 48.7417 91.4502C48.3417 91.5945 47.8972 91.6667 47.4083 91.6667C46.8417 91.6667 46.3028 91.5557 45.7917 91.3336C45.3028 91.1227 44.8639 90.8229 44.475 90.4343C44.0972 90.0569 43.7972 89.6128 43.575 89.1021C43.3639 88.6136 43.2583 88.0696 43.2583 87.47C43.2583 86.8927 43.3694 86.3487 43.5917 85.838C43.8139 85.3273 44.1139 84.8832 44.4917 84.5057C44.8694 84.1283 45.3139 83.8285 45.825 83.6065C46.3361 83.3844 46.8806 83.2734 47.4583 83.2734C48.0583 83.2734 48.6028 83.3789 49.0917 83.5898C49.6028 83.8119 50.0472 84.1116 50.425 84.4891C50.8139 84.8777 51.1139 85.3162 51.325 85.8047C51.5472 86.3154 51.6583 86.8539 51.6583 87.4201V90.7674C51.6583 91.0005 51.575 91.2004 51.4083 91.3669C51.2417 91.5335 51.0417 91.6167 50.8083 91.6167C50.575 91.6167 50.375 91.5335 50.2083 91.3669C50.0417 91.2004 49.9583 91.0005 49.9583 90.7674V90.7508L49.8917 90.834ZM47.3583 90.0347C47.7139 90.0347 48.0417 89.968 48.3417 89.8348C48.6417 89.7016 48.9028 89.5239 49.125 89.3019C49.3472 89.0799 49.525 88.819 49.6583 88.5192C49.7917 88.2194 49.8583 87.8919 49.8583 87.5367C49.8583 87.1814 49.7917 86.8539 49.6583 86.5541C49.525 86.2543 49.3472 85.9934 49.125 85.7714C48.9028 85.5494 48.6417 85.3717 48.3417 85.2385C48.0417 85.1053 47.7194 85.0387 47.375 85.0387C47.0306 85.0387 46.7083 85.1053 46.4083 85.2385C46.1083 85.3717 45.8472 85.5494 45.625 85.7714C45.4028 85.9934 45.225 86.2543 45.0917 86.5541C44.9583 86.8539 44.8917 87.1758 44.8917 87.52C44.8917 87.8642 44.9583 88.1861 45.0917 88.4859C45.225 88.7857 45.4028 89.0466 45.625 89.2686C45.8472 89.4906 46.1083 89.6683 46.4083 89.8015C46.5639 89.8681 46.7139 89.9236 46.8583 89.968C47.0139 90.0125 47.1806 90.0347 47.3583 90.0347Z" fill="white"/>
<path d="M53.4642 79.9427C53.4642 79.7096 53.5475 79.5097 53.7142 79.3432C53.8809 79.1767 54.0809 79.0934 54.3142 79.0934C54.5475 79.0934 54.7475 79.1767 54.9142 79.3432C55.0809 79.5097 55.1642 79.7096 55.1642 79.9427V90.7674C55.1642 91.0005 55.0809 91.2004 54.9142 91.3669C54.7475 91.5335 54.5475 91.6167 54.3142 91.6167C54.0809 91.6167 53.8809 91.5335 53.7142 91.3669C53.5475 91.2004 53.4642 91.0005 53.4642 90.7674V79.9427Z" fill="white"/>
<path d="M60.7047 91.6001C60.4158 91.6001 60.138 91.589 59.8714 91.5668C59.6047 91.5446 59.3436 91.4779 59.088 91.3669C58.5991 91.156 58.1602 90.8562 57.7714 90.4676C57.3936 90.0902 57.0936 89.6461 56.8714 89.1354C56.6602 88.6469 56.5547 88.1029 56.5547 87.5033C56.5547 86.926 56.6658 86.382 56.888 85.8713C57.1102 85.3606 57.4102 84.9165 57.788 84.539C58.1658 84.1616 58.6102 83.8618 59.1214 83.6398C59.6325 83.4177 60.1769 83.3067 60.7547 83.3067C61.3547 83.3067 61.8991 83.4122 62.388 83.6231C62.8991 83.8452 63.3436 84.1449 63.7214 84.5224C64.1102 84.911 64.4102 85.3495 64.6214 85.838C64.8436 86.3487 64.9547 86.8872 64.9547 87.4534C64.9547 88.0418 64.8491 88.5803 64.638 89.0688C64.4269 89.5573 64.1269 89.9958 63.738 90.3844C63.3491 90.773 62.9102 91.0727 62.4214 91.2837C61.9325 91.4946 61.3936 91.6001 60.8047 91.6001H60.7047ZM60.6714 90.068C61.0269 90.068 61.3547 90.0014 61.6547 89.8681C61.9547 89.7349 62.2158 89.5573 62.438 89.3352C62.6602 89.1132 62.838 88.8523 62.9714 88.5525C63.1047 88.2527 63.1714 87.9252 63.1714 87.57C63.1714 87.2147 63.1047 86.8872 62.9714 86.5874C62.838 86.2876 62.6602 86.0267 62.438 85.8047C62.2158 85.5827 61.9547 85.405 61.6547 85.2718C61.3547 85.1386 61.0325 85.072 60.688 85.072C60.3436 85.072 60.0214 85.1386 59.7214 85.2718C59.4214 85.405 59.1602 85.5827 58.938 85.8047C58.7158 86.0267 58.538 86.2876 58.4047 86.5874C58.2714 86.8872 58.2047 87.2091 58.2047 87.5533C58.2047 87.8975 58.2714 88.2194 58.4047 88.5192C58.538 88.819 58.7158 89.0799 58.938 89.3019C59.1602 89.5239 59.4214 89.7016 59.7214 89.8348C59.8769 89.9014 60.0269 89.9569 60.1714 90.0014C60.3269 90.0347 60.4936 90.0513 60.6714 90.0513V90.068Z" fill="white"/>
<path d="M39.4623 60.7914L49.5772 40.8074L61.378 60.7914L86.6654 78.2774L49.5772 8.33334L13.332 78.2774L39.4623 60.7914Z" fill="white"/>
<path d="M68.1096 85.4434C68.1096 85.3213 68.0598 85.4764 68.093 85.4098C68.0045 85.4986 68.1262 85.3321 68.093 85.4098C68.259 85.2433 67.8772 85.4434 68.1096 85.4434C68.342 85.4434 67.9436 85.2769 68.1096 85.4434C68.2756 85.61 68.342 83.8896 68.342 84.1227C68.6851 83.8785 69.0669 83.6786 69.4874 83.5232C69.919 83.3678 70.3617 83.2901 70.8154 83.2901C71.413 83.2901 71.9553 83.3955 72.4423 83.6065C72.9513 83.8285 73.394 84.1283 73.7703 84.5058C74.1576 84.8943 74.4564 85.3329 74.6667 85.8214C74.888 86.3321 74.9987 86.8705 74.9987 87.4368V90.7674C74.9987 91.0006 74.9157 91.2004 74.7497 91.3669C74.5837 91.5335 74.3845 91.6167 74.1521 91.6167C73.9197 91.6167 73.7205 91.5335 73.5545 91.3669C73.3885 91.2004 73.3055 91.0006 73.3055 90.7674V87.4368C73.3055 87.0815 73.2391 86.754 73.1063 86.4542C72.9735 86.1544 72.7964 85.8935 72.5751 85.6715C72.3537 85.4494 72.0937 85.2718 71.7948 85.1386C71.496 85.0054 71.1751 84.9388 70.832 84.9388C70.489 84.9388 70.168 85.0054 69.8692 85.1386C69.5704 85.2718 69.3103 85.4494 69.089 85.6715C68.8677 85.8935 68.6906 86.1544 68.5578 86.4542C68.425 86.754 68.3586 87.0759 68.3586 87.4201V90.7508C68.3586 90.9839 68.2756 91.1837 68.1096 91.3503C67.9436 91.5168 67.7444 91.6001 67.512 91.6001C67.2796 91.6001 67.0804 91.5168 66.9144 91.3503C66.7484 91.1837 66.6654 90.9839 66.6654 90.7508L68.1096 85.4434Z" fill="white"/>
<path d="M73.5545 85.4268C73.5545 85.3046 73.6043 85.4598 73.5711 85.3932C73.6596 85.482 73.5379 85.3154 73.5711 85.3932C73.4051 85.2266 73.7869 85.4268 73.5545 85.4268C73.3221 85.4268 73.7205 85.2602 73.5545 85.4268C73.3885 85.5933 72.4987 83.8729 72.4987 84.1061C72.1556 83.8618 72.5972 83.662 72.1767 83.5065C71.7451 83.3511 71.3024 83.2734 70.8486 83.2734C70.251 83.2734 69.7087 83.3789 69.2218 83.5898C68.7127 83.8119 68.2701 84.1116 67.8938 84.4891C67.5065 84.8777 67.2076 85.3162 66.9974 85.8047C66.776 86.3154 66.6654 86.8539 66.6654 87.4201V90.7508C66.6654 90.9839 66.7484 91.1837 66.9144 91.3503C67.0804 91.5168 67.2796 91.6001 67.512 91.6001C67.7444 91.6001 67.9436 91.5168 68.1096 91.3503C68.2756 91.1837 68.3586 90.9839 68.3586 90.7508V87.4201C68.3586 87.0648 68.425 86.7373 68.5578 86.4375C68.6906 86.1378 68.8677 85.8769 69.089 85.6548C69.3103 85.4328 69.5704 85.2551 69.8692 85.1219C70.168 84.9887 70.489 84.9221 70.832 84.9221C71.1751 84.9221 71.496 84.9887 71.7948 85.1219C72.0937 85.2551 72.3537 85.4328 72.5751 85.6548C72.7964 85.8769 72.9735 86.1378 73.1063 86.4375C73.2391 86.7373 73.3055 87.0593 73.3055 87.4034V90.7341C73.3055 90.9672 73.3885 91.1671 73.5545 91.3336C73.7205 91.5001 73.9197 91.5834 74.1521 91.5834C74.3845 91.5834 74.5837 91.5001 74.7497 91.3336C74.9157 91.1671 74.9987 90.9672 74.9987 90.7341L73.5545 85.4268Z" fill="white"/>
</svg>
